<svg xmlns="http://www.w3.org/2000/svg" viewBox="0 0 24 24" role="img" data-harmonyos-symbol="arrowshape_turn_up_right_fill" fill="currentColor">
  <path d="M3.672 18.648Q3.984 18.768 4.224 18.732Q4.464 18.696 4.656 18.432Q6.288 16.2 8.52 14.592Q10.752 12.984 13.344 12.984H13.776V15.264Q13.776 15.6 13.992 15.816Q14.208 16.032 14.52 16.056Q14.832 16.08 15.072 15.864L20.736 10.968Q21 10.704 21 10.356Q21 10.008 20.736 9.768L15.072 4.872Q14.832 4.656 14.52 4.68Q14.208 4.704 13.992 4.92Q13.776 5.136 13.776 5.472V7.872Q11.256 8.16 9.132 9.504Q7.008 10.848 5.484 12.984Q3.96 15.12 3.24 17.76Q3.192 18.048 3.3 18.3Q3.408 18.552 3.672 18.648Z"/>
</svg>
