<svg xmlns="http://www.w3.org/2000/svg" viewBox="0 0 24 24" role="img" data-harmonyos-symbol="lightbulb" fill="currentColor">
  <path d="M16.584 17.76 16.656 17.736Q16.8 17.712 16.92 17.604Q17.04 17.496 17.112 17.376Q17.352 16.872 17.76 16.2Q18.168 15.528 18.408 15.264Q19.392 14.064 19.908 12.624Q20.424 11.184 20.424 9.648Q20.424 7.296 19.296 5.304Q18.168 3.312 16.224 2.124Q14.28 0.936 12 0.936Q9.72 0.936 7.776 2.112Q5.832 3.288 4.692 5.28Q3.552 7.272 3.552 9.624Q3.552 11.16 4.068 12.6Q4.584 14.04 5.568 15.24Q5.64 15.336 5.712 15.432Q5.976 15.84 6.36 16.404Q6.744 16.968 6.888 17.232Q6.96 17.376 7.068 17.472Q7.176 17.568 7.32 17.616L7.368 17.64Q7.704 17.736 8.412 17.904Q9.12 18.072 10.08 18.216Q11.04 18.36 12.048 18.36Q13.392 18.36 14.424 18.18Q15.456 18 16.584 17.76ZM7.968 16.2Q7.632 15.6 7.308 15.096Q6.984 14.592 6.648 14.304Q5.856 13.32 5.424 12.108Q4.992 10.896 4.992 9.648Q4.992 7.68 5.94 6.012Q6.888 4.344 8.496 3.372Q10.104 2.4 12 2.4Q13.896 2.4 15.492 3.384Q17.088 4.368 18.036 6.024Q18.984 7.68 18.984 9.648Q18.984 10.92 18.552 12.132Q18.12 13.344 17.304 14.328Q16.848 14.832 15.984 16.416Q15.576 16.512 14.964 16.62Q14.352 16.728 13.584 16.812Q12.816 16.896 12.048 16.896Q10.584 16.896 8.28 16.392L8.04 16.32ZM7.656 18.888Q7.608 18.864 7.56 18.912Q7.512 18.96 7.512 19.032Q7.608 20.16 8.22 21.072Q8.832 21.984 9.828 22.512Q10.824 23.04 12.072 23.04Q13.176 23.04 14.16 22.512Q15.144 21.984 15.756 21.072Q16.368 20.16 16.464 19.032Q16.488 18.984 16.44 18.936Q16.392 18.888 16.344 18.888Q13.992 19.32 11.94 19.308Q9.888 19.296 7.656 18.888Z"/>
</svg>
