<svg xmlns="http://www.w3.org/2000/svg" viewBox="0 0 24 24" role="img" data-harmonyos-symbol="person_shield" fill="currentColor">
  <path d="M11.064 1.2 3.888 4.536Q3.336 4.776 3.024 5.28Q2.712 5.784 2.712 6.408V11.184Q2.712 13.824 3.816 16.236Q4.92 18.648 6.9 20.4Q8.88 22.152 11.424 22.92Q12.024 23.064 12.6 22.92Q15.168 22.152 17.136 20.412Q19.104 18.672 20.196 16.284Q21.288 13.896 21.288 11.208V6.408Q21.288 5.784 20.964 5.292Q20.64 4.8 20.112 4.56L12.96 1.2Q12.504 0.984 12.024 0.984Q11.544 0.984 11.064 1.2ZM11.856 21.48Q10.296 21 8.964 20.088Q7.632 19.176 6.624 17.928Q7.2 16.776 8.28 16.104Q9.36 15.432 10.656 15.432H13.32Q14.616 15.432 15.72 16.14Q16.824 16.848 17.376 18.024Q16.392 19.248 15.072 20.136Q13.752 21.024 12.192 21.48Q12 21.528 11.856 21.48ZM18.312 16.656Q17.472 15.384 16.152 14.652Q14.832 13.92 13.32 13.92H10.656Q9.168 13.92 7.848 14.64Q6.528 15.36 5.688 16.584Q4.968 15.36 4.584 13.992Q4.2 12.624 4.2 11.208V6.408Q4.2 6.048 4.536 5.904L11.688 2.568Q12.024 2.424 12.336 2.568L19.488 5.928Q19.632 5.976 19.716 6.12Q19.8 6.264 19.8 6.432V11.208Q19.8 12.696 19.416 14.064Q19.032 15.432 18.312 16.656ZM8.136 9.312Q8.136 10.344 8.652 11.232Q9.168 12.12 10.056 12.636Q10.944 13.152 11.976 13.152Q13.032 13.152 13.908 12.636Q14.784 12.12 15.3 11.232Q15.816 10.344 15.816 9.312Q15.816 8.28 15.3 7.392Q14.784 6.504 13.908 5.988Q13.032 5.472 11.976 5.472Q10.944 5.472 10.056 5.988Q9.168 6.504 8.652 7.392Q8.136 8.28 8.136 9.312ZM9.648 9.312Q9.648 8.328 10.332 7.644Q11.016 6.96 11.976 6.96Q12.96 6.96 13.644 7.644Q14.328 8.328 14.328 9.312Q14.328 10.272 13.644 10.956Q12.96 11.64 11.976 11.64Q11.016 11.64 10.332 10.956Q9.648 10.272 9.648 9.312Z"/>
</svg>
