<svg xmlns="http://www.w3.org/2000/svg" viewBox="0 0 24 24" role="img" data-harmonyos-symbol="mic_circle" fill="currentColor">
  <path d="M13.536 7.8V11.496Q13.536 12.12 13.092 12.564Q12.648 13.008 12.024 13.008Q11.4 13.008 10.956 12.564Q10.512 12.12 10.512 11.496V7.8Q10.512 7.176 10.956 6.732Q11.4 6.288 12.024 6.288Q12.648 6.288 13.092 6.732Q13.536 7.176 13.536 7.8ZM9.216 7.8V11.496Q9.216 12.24 9.6 12.888Q9.984 13.536 10.632 13.92Q11.28 14.304 12.024 14.304Q12.768 14.304 13.416 13.92Q14.064 13.536 14.448 12.888Q14.832 12.24 14.832 11.496V7.8Q14.832 7.032 14.448 6.384Q14.064 5.736 13.428 5.364Q12.792 4.992 12.024 4.992Q11.256 4.992 10.608 5.364Q9.96 5.736 9.588 6.384Q9.216 7.032 9.216 7.8ZM22.992 12Q22.992 9.024 21.516 6.492Q20.04 3.96 17.508 2.484Q14.976 1.008 12 1.008Q9.024 1.008 6.492 2.484Q3.96 3.96 2.484 6.492Q1.008 9.024 1.008 12Q1.008 14.976 2.484 17.508Q3.96 20.04 6.492 21.516Q9.024 22.992 12 22.992Q14.976 22.992 17.508 21.516Q20.04 20.04 21.516 17.508Q22.992 14.976 22.992 12ZM21.504 12Q21.504 14.568 20.22 16.752Q18.936 18.936 16.752 20.22Q14.568 21.504 12 21.504Q9.408 21.504 7.224 20.22Q5.04 18.936 3.768 16.752Q2.496 14.568 2.496 12Q2.496 9.432 3.768 7.248Q5.04 5.064 7.224 3.78Q9.408 2.496 12 2.496Q14.568 2.496 16.752 3.78Q18.936 5.064 20.22 7.248Q21.504 9.432 21.504 12ZM16.776 10.848Q16.512 10.848 16.32 11.04Q16.128 11.232 16.128 11.496Q16.128 12.6 15.576 13.548Q15.024 14.496 14.076 15.048Q13.128 15.6 12.024 15.6Q10.896 15.6 9.96 15.048Q9.024 14.496 8.472 13.548Q7.92 12.6 7.92 11.496Q7.92 11.232 7.728 11.04Q7.536 10.848 7.272 10.848Q7.008 10.848 6.816 11.04Q6.624 11.232 6.624 11.496Q6.624 12.864 7.248 14.028Q7.872 15.192 8.964 15.948Q10.056 16.704 11.376 16.872V18.576Q11.376 18.84 11.568 19.02Q11.76 19.2 12.024 19.2Q12.288 19.2 12.48 19.02Q12.672 18.84 12.672 18.576V16.872Q13.992 16.704 15.084 15.948Q16.176 15.192 16.8 14.016Q17.424 12.84 17.424 11.496Q17.424 11.232 17.232 11.04Q17.04 10.848 16.776 10.848Z"/>
</svg>
