<svg xmlns="http://www.w3.org/2000/svg" viewBox="0 0 24 24" role="img" data-harmonyos-symbol="rectangle_on_rectangle_fill" fill="currentColor">
  <path d="M4.56 5.304H17.208Q18.048 5.304 18.756 5.724Q19.464 6.144 19.884 6.852Q20.304 7.56 20.304 8.4V17.616Q21.288 17.184 21.9 16.26Q22.512 15.336 22.512 14.232V6.72Q22.512 5.712 22.008 4.86Q21.504 4.008 20.652 3.504Q19.8 3 18.792 3H7.992Q6.84 3 5.916 3.636Q4.992 4.272 4.56 5.304ZM1.488 9.36V18.24Q1.488 18.984 1.86 19.608Q2.232 20.232 2.856 20.604Q3.48 20.976 4.224 20.976H16.272Q17.016 20.976 17.64 20.604Q18.264 20.232 18.636 19.608Q19.008 18.984 19.008 18.24V9.36Q19.008 8.616 18.636 7.98Q18.264 7.344 17.64 6.972Q17.016 6.6 16.272 6.6H4.224Q3.48 6.6 2.856 6.972Q2.232 7.344 1.86 7.98Q1.488 8.616 1.488 9.36Z"/>
</svg>
