<svg xmlns="http://www.w3.org/2000/svg" viewBox="0 0 24 24" role="img" data-harmonyos-symbol="speaker_wave_3_slash" fill="currentColor">
  <path d="M9.576 16.512 5.88 13.512H2.856Q2.688 13.512 2.556 13.38Q2.424 13.248 2.424 13.08V9.912Q2.424 9.72 2.544 9.6Q2.664 9.48 2.856 9.48L5.88 9.456L6.816 8.712L5.808 7.704L5.376 8.04H2.856Q2.088 8.04 1.536 8.592Q0.984 9.144 0.984 9.912V13.08Q0.984 13.848 1.524 14.4Q2.064 14.952 2.856 14.952H5.376L8.664 17.64Q9 17.928 9.42 17.988Q9.84 18.048 10.248 17.856Q10.584 17.688 10.8 17.4Q11.016 17.112 11.064 16.752Q11.088 16.656 11.088 16.488V12.912L9.624 11.448ZM3.528 3.888 20.664 21.024Q20.856 21.216 21.12 21.216Q21.384 21.216 21.6 21.024Q21.792 20.832 21.792 20.556Q21.792 20.28 21.6 20.112L4.464 2.976Q4.224 2.784 3.996 2.784Q3.768 2.784 3.528 2.976Q3.36 3.168 3.36 3.432Q3.36 3.696 3.528 3.888ZM10.248 5.16Q9.912 4.992 9.54 5.016Q9.168 5.04 8.856 5.232Q8.832 5.232 8.664 5.352L8.376 5.592L9.432 6.648L9.648 6.48V6.864L11.088 8.28V6.504Q11.088 6.072 10.86 5.712Q10.632 5.352 10.248 5.16ZM14.016 8.688Q13.8 8.472 13.5 8.46Q13.2 8.448 12.984 8.664Q12.792 8.856 12.792 9.156Q12.792 9.456 12.984 9.672Q13.44 10.128 13.632 10.824L15.072 12.264Q15.24 11.304 14.988 10.368Q14.736 9.432 14.016 8.688ZM18.984 11.448Q18.984 9.936 18.396 8.532Q17.808 7.128 16.752 6.072Q16.56 5.88 16.26 5.88Q15.96 5.88 15.744 6.072Q15.528 6.288 15.528 6.588Q15.528 6.888 15.744 7.104Q16.608 7.944 17.076 9.084Q17.544 10.224 17.544 11.448Q17.544 12.84 16.944 14.112L18 15.192Q18.984 13.416 18.984 11.448ZM23.016 11.448Q23.016 9.24 22.176 7.224Q21.336 5.208 19.776 3.648Q19.584 3.432 19.272 3.432Q18.96 3.432 18.768 3.624Q18.552 3.84 18.552 4.14Q18.552 4.44 18.768 4.656Q20.112 6 20.844 7.764Q21.576 9.528 21.576 11.448Q21.576 12.936 21.12 14.352Q20.664 15.768 19.824 16.992L20.856 18.024Q21.912 16.584 22.464 14.916Q23.016 13.248 23.016 11.448Z"/>
</svg>
